<svg xmlns="http://www.w3.org/2000/svg" xmlns:xlink="http://www.w3.org/1999/xlink" width="128" zoomAndPan="magnify" viewBox="0 0 96 95.999999" height="128" preserveAspectRatio="xMidYMid meet" version="1.0"><defs><g/><clipPath id="6a8b38e230"><path d="M 8 0 L 86.550781 0 L 86.550781 96 L 8 96 Z M 8 0 " clip-rule="nonzero"/></clipPath><clipPath id="200c62e5ae"><path d="M 0.160156 1 L 4 1 L 4 5 L 0.160156 5 Z M 0.160156 1 " clip-rule="nonzero"/></clipPath><clipPath id="d86657d6c9"><path d="M 0.160156 1 L 4 1 L 4 5 L 0.160156 5 Z M 0.160156 1 " clip-rule="nonzero"/></clipPath><clipPath id="669820fae8"><path d="M 0.160156 1 L 4 1 L 4 5 L 0.160156 5 Z M 0.160156 1 " clip-rule="nonzero"/></clipPath><clipPath id="7befdcdbc5"><rect x="0" width="10" y="0" height="6"/></clipPath></defs><path fill="#ffffff" d="M 40.84375 54.042969 C 36.628906 48.9375 28.308594 51.511719 27.679688 58.074219 C 27.289062 62.164062 30.300781 65.808594 34.386719 66.199219 C 41.03125 66.820312 45.019531 59.105469 40.84375 54.042969 Z M 30.578125 58.351562 C 30.957031 54.347656 36.042969 52.789062 38.597656 55.894531 C 41.21875 59.070312 38.558594 63.726562 34.664062 63.300781 C 32.171875 63.0625 30.339844 60.84375 30.578125 58.351562 Z M 30.578125 58.351562 " fill-opacity="1" fill-rule="nonzero"/><path fill="#ffffff" d="M 21.679688 81.617188 C 21.664062 82.425781 22.316406 83.101562 23.132812 83.101562 L 38.398438 83.101562 C 39.203125 83.101562 39.851562 82.449219 39.851562 81.644531 C 39.851562 80.84375 39.203125 80.191406 38.398438 80.191406 L 24.722656 80.191406 C 25.542969 75.136719 29.9375 71.300781 35.175781 71.300781 C 40.296875 71.300781 44.753906 74.988281 45.625 80.105469 C 45.757812 80.902344 46.5 81.4375 47.300781 81.296875 C 48.09375 81.160156 48.625 80.410156 48.492188 79.617188 C 47.410156 73.25 41.929688 68.527344 35.457031 68.394531 C 28.03125 68.300781 21.832031 74.171875 21.679688 81.617188 Z M 21.679688 81.617188 " fill-opacity="1" fill-rule="nonzero"/><path fill="#ffffff" d="M 31.84375 34.570312 C 31.519531 35.304688 31.859375 36.164062 32.59375 36.484375 C 33.347656 36.808594 34.191406 36.457031 34.507812 35.734375 C 39.113281 25.171875 54.398438 24.488281 59.597656 35.3125 C 59.945312 36.03125 60.8125 36.34375 61.539062 35.988281 C 62.265625 35.644531 62.570312 34.773438 62.222656 34.050781 C 56.0625 21.234375 37.578125 21.425781 31.84375 34.570312 Z M 31.84375 34.570312 " fill-opacity="1" fill-rule="nonzero"/><g clip-path="url(#6a8b38e230)"><path fill="#ffffff" d="M 79.664062 15.0625 C 78.699219 13.140625 76.199219 12.613281 74.40625 13.84375 L 67.0625 18.835938 C 64.292969 16.390625 61.097656 14.457031 57.703125 13.175781 L 59.167969 4.949219 C 59.566406 2.765625 58.007812 0.769531 55.921875 0.675781 L 42.414062 0.0078125 C 40.265625 -0.0742188 38.601562 1.75 38.746094 3.933594 L 39.417969 12.25 C 35.722656 13.230469 32.308594 14.875 29.234375 17.148438 L 22.613281 11.320312 C 20.933594 9.789062 18.375 10.167969 17.292969 11.871094 L 9.71875 23.011719 C 8.472656 24.753906 9.191406 27.234375 11.144531 28.207031 L 18.542969 31.96875 C 17.550781 35.011719 17.070312 38.078125 17.070312 41.257812 C 17.070312 42.0625 17.71875 42.710938 18.523438 42.710938 C 18.613281 42.710938 18.691406 42.675781 18.777344 42.660156 C 19.386719 42.761719 14.511719 42.671875 77.652344 42.707031 C 80.15625 42.707031 82.191406 44.742188 82.191406 47.246094 L 82.191406 88.546875 C 82.191406 91.050781 80.15625 93.085938 77.652344 93.085938 L 15.804688 93.085938 C 13.300781 93.085938 11.265625 91.050781 11.265625 88.546875 L 11.265625 48.207031 C 11.265625 47.40625 10.613281 46.753906 9.8125 46.753906 C 9.007812 46.753906 8.355469 47.40625 8.355469 48.207031 L 8.355469 88.546875 C 8.355469 92.65625 11.695312 95.996094 15.804688 95.996094 L 77.652344 95.996094 C 81.757812 95.996094 85.101562 92.65625 85.101562 88.546875 L 85.101562 47.246094 C 85.101562 43.136719 81.757812 39.796875 77.652344 39.796875 L 20.019531 39.796875 C 20.167969 37.042969 20.734375 34.320312 21.71875 31.703125 C 22 30.953125 21.53125 29.953125 20.582031 29.75 C 12.257812 25.40625 12.179688 25.714844 12.027344 25.09375 C 11.925781 24.683594 11.714844 25.347656 19.722656 13.46875 C 19.917969 13.167969 20.394531 13.234375 20.675781 13.488281 L 27.601562 19.59375 C 27.894531 20.566406 29.097656 20.96875 29.914062 20.300781 C 33.269531 17.570312 37.109375 15.710938 41.324219 14.777344 C 42.148438 14.597656 42.714844 13.648438 42.375 12.777344 L 41.648438 3.71875 C 41.613281 3.222656 41.964844 2.890625 42.277344 2.910156 C 56.480469 3.679688 55.871094 3.421875 56.15625 3.785156 C 56.296875 3.957031 56.351562 4.191406 56.304688 4.433594 C 54.429688 14.804688 54.417969 14.183594 54.679688 14.734375 C 54.847656 15.097656 55.160156 15.375 55.542969 15.5 C 59.398438 16.753906 63.015625 18.945312 66.011719 21.824219 C 66.523438 22.320312 67.804688 22.292969 68.417969 21.425781 C 76.414062 16.113281 76.085938 15.957031 76.726562 16.109375 C 76.835938 16.140625 76.984375 16.207031 77.066406 16.371094 C 83.15625 28.636719 83.386719 28.378906 83.179688 28.875 C 82.949219 29.4375 82.941406 29.136719 74.730469 32.175781 C 73.976562 32.449219 73.582031 33.28125 73.851562 34.039062 C 74.125 34.792969 74.957031 35.175781 75.714844 34.917969 L 83.640625 32.070312 C 85.726562 31.34375 86.71875 29.03125 85.773438 27.128906 Z M 79.664062 15.0625 " fill-opacity="1" fill-rule="nonzero"/></g><path fill="#ffffff" d="M 53.53125 68.203125 L 66.003906 68.203125 C 66.808594 68.203125 67.460938 67.550781 67.460938 66.75 C 67.460938 65.945312 66.808594 65.292969 66.003906 65.292969 L 53.53125 65.292969 C 52.726562 65.292969 52.074219 65.945312 52.074219 66.75 C 52.074219 67.550781 52.726562 68.203125 53.53125 68.203125 Z M 53.53125 68.203125 " fill-opacity="1" fill-rule="nonzero"/><path fill="#ffffff" d="M 53.53125 75.722656 L 72.097656 75.722656 C 72.902344 75.722656 73.550781 75.074219 73.550781 74.269531 C 73.550781 73.464844 72.902344 72.8125 72.097656 72.8125 L 53.53125 72.8125 C 52.726562 72.8125 52.074219 73.464844 52.074219 74.269531 C 52.074219 75.074219 52.726562 75.722656 53.53125 75.722656 Z M 53.53125 75.722656 " fill-opacity="1" fill-rule="nonzero"/><g transform="matrix(1, 0, 0, 1, 44, 45)"><g clip-path="url(#7befdcdbc5)"><g clip-path="url(#200c62e5ae)"><g fill="#000000" fill-opacity="0.302"><g transform="translate(0.432899, 4.413365)"><g><path d="M 2.359375 0.015625 L 2.28125 0 L 2.1875 -0.046875 L 2.109375 -0.09375 L 2.046875 -0.25 L 1.96875 -0.3125 L 1.875 -0.359375 L 1.796875 -0.34375 L 1.71875 -0.359375 L 1.328125 -0.34375 L 1.25 -0.359375 L 1.09375 -0.34375 L 1.015625 -0.359375 L 0.921875 -0.3125 L 0.859375 -0.234375 L 0.78125 -0.109375 L 0.703125 -0.03125 L 0.609375 0 L 0.15625 0 L 0.078125 -0.015625 L 0.046875 -0.125 L 0.078125 -0.203125 L 0.15625 -0.359375 L 0.171875 -0.4375 L 0.21875 -0.484375 L 0.28125 -0.640625 L 0.359375 -0.78125 L 0.375 -0.859375 L 0.421875 -0.921875 L 0.4375 -1 L 0.859375 -1.859375 L 0.875 -1.9375 L 0.921875 -2.015625 L 0.9375 -2.09375 L 0.984375 -2.140625 L 1.140625 -2.515625 L 1.1875 -2.578125 L 1.203125 -2.65625 L 1.25 -2.71875 L 1.3125 -2.78125 L 1.4375 -2.828125 L 1.578125 -2.796875 L 1.640625 -2.71875 L 1.71875 -2.578125 L 1.75 -2.515625 L 1.8125 -2.359375 L 2.078125 -1.796875 L 2.109375 -1.71875 L 2.25 -1.4375 L 2.265625 -1.359375 L 2.3125 -1.28125 L 2.359375 -1.21875 L 2.5 -0.859375 L 2.578125 -0.71875 L 2.640625 -0.5625 L 2.75 -0.359375 L 2.8125 -0.203125 L 2.84375 -0.109375 L 2.828125 -0.015625 L 2.71875 0 L 2.515625 0 Z M 1.453125 -0.984375 L 1.609375 -0.984375 L 1.671875 -1.03125 L 1.6875 -1.09375 L 1.5 -1.53125 L 1.4375 -1.5625 L 1.40625 -1.53125 L 1.21875 -1.09375 L 1.21875 -1.03125 L 1.28125 -1 L 1.375 -1 Z M 1.453125 -0.984375 "/></g></g></g></g><g fill="#000000" fill-opacity="0.302"><g transform="translate(4.424916, 4.413365)"><g><path d="M 0.421875 0.015625 L 0.34375 -0.046875 L 0.296875 -0.125 L 0.296875 -1.015625 L 0.28125 -1.078125 L 0.296875 -1.484375 L 0.296875 -2.203125 L 0.28125 -2.28125 L 0.296875 -2.4375 L 0.28125 -2.6875 L 0.328125 -2.765625 L 0.421875 -2.796875 L 0.53125 -2.765625 L 0.625 -2.703125 L 0.734375 -2.59375 L 0.796875 -2.546875 L 0.890625 -2.421875 L 0.953125 -2.375 L 1.3125 -1.96875 L 1.40625 -1.890625 L 1.46875 -1.796875 L 1.53125 -1.734375 L 1.578125 -1.671875 L 1.65625 -1.640625 L 1.734375 -1.6875 L 1.984375 -1.9375 L 2.03125 -2 L 2.390625 -2.359375 L 2.4375 -2.4375 L 2.484375 -2.46875 L 2.546875 -2.546875 L 2.703125 -2.71875 L 2.796875 -2.765625 L 2.90625 -2.796875 L 2.984375 -2.765625 L 3.046875 -2.671875 L 3.03125 -2.59375 L 3.03125 -2.375 L 3.046875 -2.203125 L 3.03125 -2.125 L 3.046875 -1.71875 L 3.03125 -1.640625 L 3.046875 -0.4375 L 3.03125 -0.359375 L 3.046875 -0.140625 L 3 -0.03125 L 2.90625 0.015625 L 2.421875 0 L 2.34375 -0.03125 L 2.3125 -0.125 L 2.3125 -0.1875 L 2.296875 -0.359375 L 2.3125 -0.4375 L 2.296875 -0.578125 L 2.3125 -0.734375 L 2.296875 -0.890625 L 2.3125 -1.109375 L 2.28125 -1.171875 L 2.21875 -1.15625 L 2.0625 -0.984375 L 2 -0.9375 L 1.890625 -0.8125 L 1.78125 -0.703125 L 1.703125 -0.640625 L 1.625 -0.640625 L 1.53125 -0.703125 L 1.421875 -0.8125 L 1.375 -0.875 L 1.21875 -1.046875 L 1.15625 -1.09375 L 1.09375 -1.15625 L 1.0625 -1.171875 L 1.03125 -1.125 L 1.03125 -0.65625 L 1.015625 -0.53125 L 1.03125 -0.109375 L 0.984375 -0.046875 L 0.875 0 L 0.734375 0 L 0.65625 0.015625 L 0.5 0 Z M 0.421875 0.015625 "/></g></g></g><g clip-path="url(#d86657d6c9)"><g fill="#000000" fill-opacity="0.502"><g transform="translate(0.38168, 4.373349)"><g><path d="M 2.359375 0.015625 L 2.28125 0 L 2.1875 -0.046875 L 2.109375 -0.09375 L 2.046875 -0.25 L 1.96875 -0.3125 L 1.875 -0.359375 L 1.796875 -0.34375 L 1.71875 -0.359375 L 1.328125 -0.34375 L 1.25 -0.359375 L 1.09375 -0.34375 L 1.015625 -0.359375 L 0.921875 -0.3125 L 0.859375 -0.234375 L 0.78125 -0.109375 L 0.703125 -0.03125 L 0.609375 0 L 0.15625 0 L 0.078125 -0.015625 L 0.046875 -0.125 L 0.078125 -0.203125 L 0.15625 -0.359375 L 0.171875 -0.4375 L 0.21875 -0.484375 L 0.28125 -0.640625 L 0.359375 -0.78125 L 0.375 -0.859375 L 0.421875 -0.921875 L 0.4375 -1 L 0.859375 -1.859375 L 0.875 -1.9375 L 0.921875 -2.015625 L 0.9375 -2.09375 L 0.984375 -2.140625 L 1.140625 -2.515625 L 1.1875 -2.578125 L 1.203125 -2.65625 L 1.25 -2.71875 L 1.3125 -2.78125 L 1.4375 -2.828125 L 1.578125 -2.796875 L 1.640625 -2.71875 L 1.71875 -2.578125 L 1.75 -2.515625 L 1.8125 -2.359375 L 2.078125 -1.796875 L 2.109375 -1.71875 L 2.25 -1.4375 L 2.265625 -1.359375 L 2.3125 -1.28125 L 2.359375 -1.21875 L 2.5 -0.859375 L 2.578125 -0.71875 L 2.640625 -0.5625 L 2.75 -0.359375 L 2.8125 -0.203125 L 2.84375 -0.109375 L 2.828125 -0.015625 L 2.71875 0 L 2.515625 0 Z M 1.453125 -0.984375 L 1.609375 -0.984375 L 1.671875 -1.03125 L 1.6875 -1.09375 L 1.5 -1.53125 L 1.4375 -1.5625 L 1.40625 -1.53125 L 1.21875 -1.09375 L 1.21875 -1.03125 L 1.28125 -1 L 1.375 -1 Z M 1.453125 -0.984375 "/></g></g></g></g><g fill="#000000" fill-opacity="0.502"><g transform="translate(4.373698, 4.373349)"><g><path d="M 0.421875 0.015625 L 0.34375 -0.046875 L 0.296875 -0.125 L 0.296875 -1.015625 L 0.28125 -1.078125 L 0.296875 -1.484375 L 0.296875 -2.203125 L 0.28125 -2.28125 L 0.296875 -2.4375 L 0.28125 -2.6875 L 0.328125 -2.765625 L 0.421875 -2.796875 L 0.53125 -2.765625 L 0.625 -2.703125 L 0.734375 -2.59375 L 0.796875 -2.546875 L 0.890625 -2.421875 L 0.953125 -2.375 L 1.3125 -1.96875 L 1.40625 -1.890625 L 1.46875 -1.796875 L 1.53125 -1.734375 L 1.578125 -1.671875 L 1.65625 -1.640625 L 1.734375 -1.6875 L 1.984375 -1.9375 L 2.03125 -2 L 2.390625 -2.359375 L 2.4375 -2.4375 L 2.484375 -2.46875 L 2.546875 -2.546875 L 2.703125 -2.71875 L 2.796875 -2.765625 L 2.90625 -2.796875 L 2.984375 -2.765625 L 3.046875 -2.671875 L 3.03125 -2.59375 L 3.03125 -2.375 L 3.046875 -2.203125 L 3.03125 -2.125 L 3.046875 -1.71875 L 3.03125 -1.640625 L 3.046875 -0.4375 L 3.03125 -0.359375 L 3.046875 -0.140625 L 3 -0.03125 L 2.90625 0.015625 L 2.421875 0 L 2.34375 -0.03125 L 2.3125 -0.125 L 2.3125 -0.1875 L 2.296875 -0.359375 L 2.3125 -0.4375 L 2.296875 -0.578125 L 2.3125 -0.734375 L 2.296875 -0.890625 L 2.3125 -1.109375 L 2.28125 -1.171875 L 2.21875 -1.15625 L 2.0625 -0.984375 L 2 -0.9375 L 1.890625 -0.8125 L 1.78125 -0.703125 L 1.703125 -0.640625 L 1.625 -0.640625 L 1.53125 -0.703125 L 1.421875 -0.8125 L 1.375 -0.875 L 1.21875 -1.046875 L 1.15625 -1.09375 L 1.09375 -1.15625 L 1.0625 -1.171875 L 1.03125 -1.125 L 1.03125 -0.65625 L 1.015625 -0.53125 L 1.03125 -0.109375 L 0.984375 -0.046875 L 0.875 0 L 0.734375 0 L 0.65625 0.015625 L 0.5 0 Z M 0.421875 0.015625 "/></g></g></g><g clip-path="url(#669820fae8)"><g fill="#ffffff" fill-opacity="1"><g transform="translate(0.330458, 4.33333)"><g><path d="M 2.359375 0.015625 L 2.28125 0 L 2.1875 -0.046875 L 2.109375 -0.09375 L 2.046875 -0.25 L 1.96875 -0.3125 L 1.875 -0.359375 L 1.796875 -0.34375 L 1.71875 -0.359375 L 1.328125 -0.34375 L 1.25 -0.359375 L 1.09375 -0.34375 L 1.015625 -0.359375 L 0.921875 -0.3125 L 0.859375 -0.234375 L 0.78125 -0.109375 L 0.703125 -0.03125 L 0.609375 0 L 0.15625 0 L 0.078125 -0.015625 L 0.046875 -0.125 L 0.078125 -0.203125 L 0.15625 -0.359375 L 0.171875 -0.4375 L 0.21875 -0.484375 L 0.28125 -0.640625 L 0.359375 -0.78125 L 0.375 -0.859375 L 0.421875 -0.921875 L 0.4375 -1 L 0.859375 -1.859375 L 0.875 -1.9375 L 0.921875 -2.015625 L 0.9375 -2.09375 L 0.984375 -2.140625 L 1.140625 -2.515625 L 1.1875 -2.578125 L 1.203125 -2.65625 L 1.25 -2.71875 L 1.3125 -2.78125 L 1.4375 -2.828125 L 1.578125 -2.796875 L 1.640625 -2.71875 L 1.71875 -2.578125 L 1.75 -2.515625 L 1.8125 -2.359375 L 2.078125 -1.796875 L 2.109375 -1.71875 L 2.25 -1.4375 L 2.265625 -1.359375 L 2.3125 -1.28125 L 2.359375 -1.21875 L 2.5 -0.859375 L 2.578125 -0.71875 L 2.640625 -0.5625 L 2.75 -0.359375 L 2.8125 -0.203125 L 2.84375 -0.109375 L 2.828125 -0.015625 L 2.71875 0 L 2.515625 0 Z M 1.453125 -0.984375 L 1.609375 -0.984375 L 1.671875 -1.03125 L 1.6875 -1.09375 L 1.5 -1.53125 L 1.4375 -1.5625 L 1.40625 -1.53125 L 1.21875 -1.09375 L 1.21875 -1.03125 L 1.28125 -1 L 1.375 -1 Z M 1.453125 -0.984375 "/></g></g></g></g><g fill="#ffffff" fill-opacity="1"><g transform="translate(4.322476, 4.33333)"><g><path d="M 0.421875 0.015625 L 0.34375 -0.046875 L 0.296875 -0.125 L 0.296875 -1.015625 L 0.28125 -1.078125 L 0.296875 -1.484375 L 0.296875 -2.203125 L 0.28125 -2.28125 L 0.296875 -2.4375 L 0.28125 -2.6875 L 0.328125 -2.765625 L 0.421875 -2.796875 L 0.53125 -2.765625 L 0.625 -2.703125 L 0.734375 -2.59375 L 0.796875 -2.546875 L 0.890625 -2.421875 L 0.953125 -2.375 L 1.3125 -1.96875 L 1.40625 -1.890625 L 1.46875 -1.796875 L 1.53125 -1.734375 L 1.578125 -1.671875 L 1.65625 -1.640625 L 1.734375 -1.6875 L 1.984375 -1.9375 L 2.03125 -2 L 2.390625 -2.359375 L 2.4375 -2.4375 L 2.484375 -2.46875 L 2.546875 -2.546875 L 2.703125 -2.71875 L 2.796875 -2.765625 L 2.90625 -2.796875 L 2.984375 -2.765625 L 3.046875 -2.671875 L 3.03125 -2.59375 L 3.03125 -2.375 L 3.046875 -2.203125 L 3.03125 -2.125 L 3.046875 -1.71875 L 3.03125 -1.640625 L 3.046875 -0.4375 L 3.03125 -0.359375 L 3.046875 -0.140625 L 3 -0.03125 L 2.90625 0.015625 L 2.421875 0 L 2.34375 -0.03125 L 2.3125 -0.125 L 2.3125 -0.1875 L 2.296875 -0.359375 L 2.3125 -0.4375 L 2.296875 -0.578125 L 2.3125 -0.734375 L 2.296875 -0.890625 L 2.3125 -1.109375 L 2.28125 -1.171875 L 2.21875 -1.15625 L 2.0625 -0.984375 L 2 -0.9375 L 1.890625 -0.8125 L 1.78125 -0.703125 L 1.703125 -0.640625 L 1.625 -0.640625 L 1.53125 -0.703125 L 1.421875 -0.8125 L 1.375 -0.875 L 1.21875 -1.046875 L 1.15625 -1.09375 L 1.09375 -1.15625 L 1.0625 -1.171875 L 1.03125 -1.125 L 1.03125 -0.65625 L 1.015625 -0.53125 L 1.03125 -0.109375 L 0.984375 -0.046875 L 0.875 0 L 0.734375 0 L 0.65625 0.015625 L 0.5 0 Z M 0.421875 0.015625 "/></g></g></g></g></g></svg>